<mxfile host="app.diagrams.net" modified="2022-08-22T04:21:00.141Z" agent="5.0 (Windows NT 10.0; Win64; x64) AppleWebKit/537.36 (KHTML, like Gecko) Chrome/104.0.0.0 Safari/537.36" etag="3w7Ty39LgHwXORHbnYTs" version="20.2.5" type="github">
  <diagram id="7JamH7ma85fUFHVBdIIt" name="第 1 页">
    <mxGraphModel dx="1209" dy="713" grid="1" gridSize="10" guides="1" tooltips="1" connect="1" arrows="1" fold="1" page="1" pageScale="1" pageWidth="827" pageHeight="1169" math="0" shadow="0">
      <root>
        <mxCell id="0" />
        <mxCell id="1" parent="0" />
        <mxCell id="IGx4vLYbI_455p3IEL2Y-6" style="edgeStyle=orthogonalEdgeStyle;rounded=0;orthogonalLoop=1;jettySize=auto;html=1;" edge="1" parent="1" source="IGx4vLYbI_455p3IEL2Y-1" target="IGx4vLYbI_455p3IEL2Y-2">
          <mxGeometry relative="1" as="geometry" />
        </mxCell>
        <mxCell id="IGx4vLYbI_455p3IEL2Y-1" value="Pytorch" style="rounded=0;whiteSpace=wrap;html=1;" vertex="1" parent="1">
          <mxGeometry x="150" y="100" width="120" height="60" as="geometry" />
        </mxCell>
        <mxCell id="IGx4vLYbI_455p3IEL2Y-7" style="edgeStyle=orthogonalEdgeStyle;rounded=0;orthogonalLoop=1;jettySize=auto;html=1;exitX=0.5;exitY=1;exitDx=0;exitDy=0;entryX=0.5;entryY=0;entryDx=0;entryDy=0;" edge="1" parent="1" source="IGx4vLYbI_455p3IEL2Y-2" target="IGx4vLYbI_455p3IEL2Y-3">
          <mxGeometry relative="1" as="geometry" />
        </mxCell>
        <mxCell id="IGx4vLYbI_455p3IEL2Y-2" value="onnx" style="whiteSpace=wrap;html=1;" vertex="1" parent="1">
          <mxGeometry x="150" y="220" width="120" height="60" as="geometry" />
        </mxCell>
        <mxCell id="IGx4vLYbI_455p3IEL2Y-8" style="edgeStyle=orthogonalEdgeStyle;rounded=0;orthogonalLoop=1;jettySize=auto;html=1;exitX=0.5;exitY=1;exitDx=0;exitDy=0;entryX=0.5;entryY=0;entryDx=0;entryDy=0;" edge="1" parent="1" source="IGx4vLYbI_455p3IEL2Y-3" target="IGx4vLYbI_455p3IEL2Y-4">
          <mxGeometry relative="1" as="geometry" />
        </mxCell>
        <mxCell id="IGx4vLYbI_455p3IEL2Y-3" value="caffe" style="whiteSpace=wrap;html=1;" vertex="1" parent="1">
          <mxGeometry x="150" y="350" width="120" height="60" as="geometry" />
        </mxCell>
        <mxCell id="IGx4vLYbI_455p3IEL2Y-10" style="edgeStyle=orthogonalEdgeStyle;rounded=0;orthogonalLoop=1;jettySize=auto;html=1;" edge="1" parent="1" source="IGx4vLYbI_455p3IEL2Y-4" target="IGx4vLYbI_455p3IEL2Y-5">
          <mxGeometry relative="1" as="geometry" />
        </mxCell>
        <mxCell id="IGx4vLYbI_455p3IEL2Y-4" value="wk" style="whiteSpace=wrap;html=1;" vertex="1" parent="1">
          <mxGeometry x="150" y="490" width="120" height="60" as="geometry" />
        </mxCell>
        <mxCell id="IGx4vLYbI_455p3IEL2Y-5" value="nnie runtime" style="whiteSpace=wrap;html=1;" vertex="1" parent="1">
          <mxGeometry x="150" y="630" width="120" height="60" as="geometry" />
        </mxCell>
        <mxCell id="IGx4vLYbI_455p3IEL2Y-9" value="nnie_mapper" style="text;html=1;align=center;verticalAlign=middle;resizable=0;points=[];autosize=1;strokeColor=none;fillColor=none;" vertex="1" parent="1">
          <mxGeometry x="205" y="435" width="90" height="30" as="geometry" />
        </mxCell>
        <mxCell id="IGx4vLYbI_455p3IEL2Y-11" value="runtime mapper" style="text;html=1;align=center;verticalAlign=middle;resizable=0;points=[];autosize=1;strokeColor=none;fillColor=none;" vertex="1" parent="1">
          <mxGeometry x="185" y="575" width="110" height="30" as="geometry" />
        </mxCell>
        <mxCell id="IGx4vLYbI_455p3IEL2Y-12" value="tvm" style="whiteSpace=wrap;html=1;" vertex="1" parent="1">
          <mxGeometry x="490" y="90" width="120" height="60" as="geometry" />
        </mxCell>
        <mxCell id="IGx4vLYbI_455p3IEL2Y-13" value="onnx" style="whiteSpace=wrap;html=1;" vertex="1" parent="1">
          <mxGeometry x="490" y="200" width="120" height="60" as="geometry" />
        </mxCell>
        <mxCell id="IGx4vLYbI_455p3IEL2Y-14" value="caffe" style="whiteSpace=wrap;html=1;" vertex="1" parent="1">
          <mxGeometry x="490" y="320" width="120" height="60" as="geometry" />
        </mxCell>
        <mxCell id="IGx4vLYbI_455p3IEL2Y-19" style="edgeStyle=orthogonalEdgeStyle;rounded=0;orthogonalLoop=1;jettySize=auto;html=1;exitX=0.5;exitY=1;exitDx=0;exitDy=0;" edge="1" parent="1" source="IGx4vLYbI_455p3IEL2Y-15" target="IGx4vLYbI_455p3IEL2Y-18">
          <mxGeometry relative="1" as="geometry" />
        </mxCell>
        <mxCell id="IGx4vLYbI_455p3IEL2Y-15" value="ruyi studio 调试成功后，使用ruyicmd进行自动化" style="whiteSpace=wrap;html=1;" vertex="1" parent="1">
          <mxGeometry x="490" y="430" width="120" height="60" as="geometry" />
        </mxCell>
        <mxCell id="IGx4vLYbI_455p3IEL2Y-17" value="人工定义网络结构&lt;br&gt;是否可以命令行？" style="text;html=1;align=center;verticalAlign=middle;resizable=0;points=[];autosize=1;strokeColor=none;fillColor=none;" vertex="1" parent="1">
          <mxGeometry x="70" y="430" width="120" height="40" as="geometry" />
        </mxCell>
        <mxCell id="IGx4vLYbI_455p3IEL2Y-18" value="发送到板子上执行，返回执行时间" style="whiteSpace=wrap;html=1;" vertex="1" parent="1">
          <mxGeometry x="490" y="550" width="120" height="60" as="geometry" />
        </mxCell>
        <mxCell id="IGx4vLYbI_455p3IEL2Y-20" value="load wk文件自己编写" style="text;html=1;align=center;verticalAlign=middle;resizable=0;points=[];autosize=1;strokeColor=none;fillColor=none;" vertex="1" parent="1">
          <mxGeometry x="500" y="505" width="140" height="30" as="geometry" />
        </mxCell>
      </root>
    </mxGraphModel>
  </diagram>
</mxfile>
